<?xml version="1.0" encoding="UTF-8"?>
<svg id="Capa_1" xmlns="http://www.w3.org/2000/svg" xmlns:xlink="http://www.w3.org/1999/xlink" version="1.1" viewBox="0 0 121 38.08">
  <!-- Generator: Adobe Illustrator 30.2.1, SVG Export Plug-In . SVG Version: 2.1.1 Build 1)  -->
  <defs>
    <style>
      .st0 {
        fill: url(#Degradado_sin_nombre);
      }

      .st1 {
        fill: #383e44;
      }
    </style>
    <linearGradient id="Degradado_sin_nombre" data-name="Degradado sin nombre" x1="2.21" y1="21.01" x2="20.52" y2="21.01" gradientTransform="translate(0 40) scale(1 -1)" gradientUnits="userSpaceOnUse">
      <stop offset="0" stop-color="#f50"/>
      <stop offset=".19" stop-color="#ee4300"/>
      <stop offset=".73" stop-color="#c21300"/>
      <stop offset="1" stop-color="#b10100"/>
    </linearGradient>
  </defs>
  <path class="st0" d="M15.19,32.95c1.06-.43,1.99-1.04,2.78-1.79.78-.75,1.41-1.65,1.86-2.67.46-1.03.69-2.14.69-3.31s-.23-2.24-.69-3.13c-.43-.85-.93-1.56-1.47-2.1-.33-.35-.69-.67-1.08-.95.38-.28.74-.6,1.08-.95.54-.54,1.03-1.25,1.47-2.1.45-.89.69-1.94.69-3.13s-.23-2.28-.69-3.31c-.45-1.02-1.08-1.92-1.86-2.67s-1.72-1.35-2.78-1.79c-1.07-.44-2.22-.66-3.44-.66H2.21v6.94h5.33v-1.82h4.21c1.05,0,1.86.3,2.49.9s.94,1.39.94,2.4-.31,1.79-.94,2.4c-.63.61-1.45.9-2.49.9h-4.21v-1.82H2.21v9.39h5.33v-1.82h4.21c1.05,0,1.86.3,2.49.9.63.61.94,1.39.94,2.4s-.31,1.79-.94,2.4-1.45.9-2.49.9h-4.21v-1.82H2.21v6.95h9.54c1.22,0,2.38-.22,3.44-.66v.02Z"/>
  <path class="st1" d="M34.39,5.32c-.44-.24-1-.36-1.67-.36-.57,0-1.11.1-1.6.29s-.92.46-1.28.8-.65.74-.85,1.2-.31.96-.31,1.5v4.4c0,.54.1,1.04.31,1.5.2.46.49.86.85,1.2h0c.36.34.79.61,1.28.8s1.03.29,1.6.29c.66,0,1.23-.11,1.67-.33.45-.22.83-.48,1.12-.75.3-.29.56-.62.76-1l-1.25-.71c-.12.24-.27.45-.46.63-.17.18-.42.35-.72.5-.31.15-.69.23-1.12.23-.35,0-.68-.06-.99-.18s-.58-.29-.81-.51c-.23-.21-.42-.47-.55-.75-.13-.29-.2-.6-.2-.92v-4.36c0-.33.07-.64.2-.92.13-.29.32-.54.55-.75.23-.22.5-.39.81-.51.31-.12.64-.18.99-.18.44,0,.82.09,1.13.26.3.17.55.35.72.55.18.19.34.42.45.67l1.24-.71c-.2-.39-.46-.74-.77-1.06-.29-.28-.67-.54-1.12-.78l.02-.04Z"/>
  <rect class="st1" x="48.08" y="4.98" width="1.49" height="11.93"/>
  <rect class="st1" x="62.33" y="4.98" width="1.49" height="11.93"/>
  <rect class="st1" x="105.97" y="4.98" width="1.49" height="11.93"/>
  <polygon class="st1" points="58.43 16.9 60.07 16.9 56.89 10.94 59.9 4.98 58.25 4.98 55.84 9.89 53.42 4.98 51.78 4.98 54.79 10.94 51.6 16.9 53.25 16.9 55.84 11.91 58.43 16.9"/>
  <polygon class="st1" points="66.57 4.98 66.57 16.9 73.74 16.9 73.74 15.47 68.06 15.47 68.06 4.98 66.57 4.98"/>
  <polygon class="st1" points="83.37 16.9 83.37 4.98 81.88 4.98 81.88 10.27 77.15 10.27 77.15 4.98 75.66 4.98 75.66 16.9 77.15 16.9 77.15 11.7 81.88 11.7 81.88 16.9 83.37 16.9"/>
  <path class="st1" d="M102.69,16.9h1.64l-2.77-5.33.11-.04c.46-.17.87-.4,1.23-.69.3-.25.58-.57.84-.98.25-.4.38-.91.38-1.52,0-.46-.09-.89-.28-1.3-.19-.41-.44-.77-.75-1.07s-.69-.54-1.11-.72-.88-.27-1.35-.27h-4.21v11.93h1.49v-5.2h2.16l2.61,5.2h0ZM97.91,6.41h2.73c.57,0,1.05.19,1.43.55.38.37.57.83.57,1.38s-.19,1.01-.57,1.38-.86.55-1.43.55h-2.73v-3.86Z"/>
  <g>
    <g>
      <path class="st1" d="M88.98,27.35v1.51c0,.26-.05.51-.16.73-.11.23-.25.43-.44.6s-.41.31-.65.41c-.49.2-1.11.2-1.6,0-.25-.1-.47-.24-.66-.41s-.33-.38-.44-.6c-.1-.22-.16-.47-.16-.73v-1.51h-2.48v1.53c0,.6.12,1.17.35,1.68.23.52.55.97.96,1.35.41.38.89.68,1.44.9.55.21,1.15.32,1.79.32s1.24-.11,1.79-.32,1.03-.52,1.44-.9.73-.84.96-1.35c.23-.52.35-1.08.35-1.68v-1.53h-2.49Z"/>
      <path class="st1" d="M84.88,26.02v-1.51c0-.26.05-.5.16-.73s.25-.43.44-.6.41-.31.66-.41.52-.15.8-.15.55.05.8.15.47.24.66.41.33.38.44.6c.1.22.16.47.16.73v1.51h2.48v-1.53c0-.6-.12-1.17-.35-1.68-.23-.52-.55-.97-.96-1.35-.41-.38-.89-.68-1.44-.9-1.1-.43-2.47-.43-3.57,0-.55.21-1.03.52-1.44.9s-.73.84-.96,1.35c-.23.52-.35,1.08-.35,1.68v1.53h2.48-.01Z"/>
    </g>
    <path class="st1" d="M34.41,32.84c.47-.19.88-.46,1.22-.79.34-.33.62-.73.82-1.18s.3-.94.3-1.46-.1-.99-.3-1.38c-.19-.37-.41-.69-.65-.93-.15-.15-.31-.29-.47-.42.17-.12.33-.26.47-.42.24-.24.46-.55.65-.93.2-.39.3-.86.3-1.38s-.1-1.01-.3-1.46c-.2-.45-.48-.85-.82-1.18s-.76-.6-1.22-.79c-.47-.19-.98-.29-1.52-.29h-4.2v3.06h2.35v-.8h1.86c.46,0,.82.13,1.1.4s.41.61.41,1.06-.14.79-.41,1.06c-.28.27-.64.4-1.1.4h-1.86v-.8h-2.35v4.14h2.35v-.8h1.86c.46,0,.82.13,1.1.4s.41.61.41,1.06-.14.79-.41,1.06-.64.4-1.1.4h-1.86v-.8h-2.35v3.06h4.2c.54,0,1.05-.1,1.52-.29Z"/>
    <polygon class="st1" points="46.89 30.74 41.21 30.74 41.21 20.25 38.73 20.25 38.73 33.13 46.89 33.13 46.89 30.74"/>
    <polygon class="st1" points="67.23 27.58 63.34 20.25 61.01 20.25 61.01 33.13 63.49 33.13 63.49 25.8 67.38 33.13 69.71 33.13 69.71 20.25 67.23 20.25 67.23 27.58"/>
    <path class="st1" d="M78.4,29.58c-.1.23-.24.43-.42.6-.14.14-.33.28-.58.4-.43.21-1.14.25-1.7.03-.25-.1-.47-.24-.66-.41s-.33-.38-.44-.6c-.1-.22-.16-.47-.16-.73v-4.36c0-.26.05-.5.16-.73s.25-.43.44-.6.41-.31.65-.41c.55-.22,1.26-.19,1.68.05.25.14.45.29.6.46.17.18.31.4.41.64l.17.4,2.13-1.22-.15-.3c-.23-.46-.53-.89-.9-1.27-.32-.31-.74-.6-1.23-.86-.52-.28-1.16-.42-1.91-.42-.64,0-1.24.11-1.79.32s-1.03.52-1.44.9-.73.84-.96,1.35c-.23.52-.35,1.08-.35,1.68v4.4c0,.6.12,1.17.35,1.68.23.52.55.97.96,1.35.41.38.89.68,1.44.9.55.21,1.15.32,1.79.32.74,0,1.38-.13,1.9-.38.5-.24.91-.53,1.24-.84.37-.35.67-.76.9-1.21l.16-.31-2.13-1.22-.17.39h.01Z"/>
    <path class="st1" d="M52.62,20.25l-4.21,12.88h2.61l.99-2.95h3.59l.99,2.95h2.61l-4.21-12.88h-2.37ZM54.9,27.88h-2.2l1.1-3.35s1.1,3.35,1.1,3.35Z"/>
  </g>
  <path class="st1" d="M92.97,16.9h1.57l-3.9-11.93h-1.64l-3.9,11.93h1.57l1.69-5.2h2.92l1.69,5.2ZM88.83,10.27l.99-3.06.99,3.06h-1.99.01Z"/>
  <path class="st1" d="M117.22,16.9h1.57l-3.9-11.93h-1.64l-3.9,11.93h1.57l1.69-5.2h2.92l1.69,5.2ZM113.08,10.27l.99-3.06.99,3.06h-1.99.01Z"/>
  <path class="st1" d="M44.83,16.9h1.57l-3.9-11.93h-1.64l-3.9,11.93h1.57l1.69-5.2h2.92s1.69,5.2,1.69,5.2ZM40.69,10.27l.99-3.06.99,3.06h-1.99,0Z"/>
</svg>