<?xml version="1.0" encoding="UTF-8"?><svg xmlns="http://www.w3.org/2000/svg" viewBox="0 0 596 769"><!-- bg --><rect width="596" height="769" fill="#F9FAFB"/><!-- white card --><rect x="58" y="36" width="480" height="697" rx="10" fill="#FFFFFF" stroke="#E5E7EB" stroke-width="1"/><!-- title --><rect x="108" y="86" width="280" height="28" rx="14" fill="#1F2937" opacity=".75"/><!-- divider --><rect x="80" y="158" width="436" height="1.5" fill="#E5E7EB"/><!-- section 1 heading --><rect x="80" y="194" width="188" height="22" rx="11" fill="#374151" opacity=".55"/><!-- section 1 body --><rect x="80" y="230" width="436" height="18" rx="9" fill="#D1D5DB" opacity=".65"/><!-- section 2 heading --><rect x="80" y="298" width="208" height="22" rx="11" fill="#374151" opacity=".50"/><!-- section 2 body --><rect x="80" y="334" width="436" height="18" rx="9" fill="#D1D5DB" opacity=".65"/><!-- section 3 heading --><rect x="80" y="402" width="176" height="22" rx="11" fill="#374151" opacity=".50"/><!-- section 3 body --><rect x="80" y="438" width="436" height="18" rx="9" fill="#D1D5DB" opacity=".65"/><!-- section 4 heading --><rect x="80" y="506" width="196" height="22" rx="11" fill="#374151" opacity=".50"/><!-- section 4 body --><rect x="80" y="542" width="436" height="18" rx="9" fill="#D1D5DB" opacity=".65"/><!-- divider --><rect x="80" y="608" width="436" height="1.5" fill="#E5E7EB"/><!-- footer --><rect x="168" y="634" width="260" height="18" rx="9" fill="#9CA3AF" opacity=".32"/></svg>
